<?xml version="1.0" encoding="UTF-8"?>
<svg xmlns="http://www.w3.org/2000/svg" version="1.1" viewBox="0 0 16 16">
  <!-- Generator: Adobe Illustrator 30.0.0, SVG Export Plug-In . SVG Version: 2.1.1 Build 123)  -->
  <defs>
    <style>
      .st0 {
        fill: currentColor;
      }
    </style>
  </defs>
  <g id="Layer_1" shape-rendering="crispEdges">
    <g>
      <path class="st0" d="M13,2h-4v2h2v1h1v2h2V2h-1Z"/>
      <rect class="st0" x="3" y="3" width="1" height="1"/>
      <rect class="st0" x="5" y="3" width="1" height="1"/>
      <rect class="st0" x="7" y="3" width="1" height="1"/>
      <rect class="st0" x="3" y="5" width="1" height="1"/>
      <rect class="st0" x="10" y="5" width="1" height="1"/>
      <rect class="st0" x="9" y="6" width="1" height="1"/>
      <rect class="st0" x="3" y="7" width="1" height="1"/>
      <rect class="st0" x="12" y="8" width="1" height="1"/>
      <rect class="st0" x="6" y="9" width="1" height="1"/>
      <path class="st0" d="M4,10v-1h-2v5h5v-2h-2v-1h-1v-1Z"/>
      <rect class="st0" x="5" y="10" width="1" height="1"/>
      <rect class="st0" x="12" y="10" width="1" height="1"/>
      <rect class="st0" x="8" y="12" width="1" height="1"/>
      <rect class="st0" x="10" y="12" width="1" height="1"/>
      <rect class="st0" x="12" y="12" width="1" height="1"/>
    </g>
  </g>
</svg>