<?xml version="1.0" encoding="UTF-8"?>
<svg xmlns="http://www.w3.org/2000/svg" version="1.1" viewBox="0 0 16 16">
  <!-- Generator: Adobe Illustrator 30.0.0, SVG Export Plug-In . SVG Version: 2.1.1 Build 123)  -->
  <defs>
    <style>
      .st0 {
        fill: currentColor;
      }
    </style>
  </defs>
  <g id="Layer_1" shape-rendering="crispEdges">
    <path class="st0" d="M13,3v-1H3v1h-1v10h1v1h10v-1h1V3h-1ZM13,8v2h-1v1h-3v2h-1v-1h-1v-1h-1v-1h1v-1h1v-1h-1v-2h-3v3h1v1h-1v-1h-1v-3h1v-1h3v-2h1v1h1v1h1v1h-1v1h-1v1h1v2h3v-3h-1v-1h1v1h1v1Z"/>
  </g>
</svg>