<?xml version="1.0" encoding="UTF-8"?>
<svg xmlns="http://www.w3.org/2000/svg" version="1.1" viewBox="0 0 16 16">
  <!-- Generator: Adobe Illustrator 30.0.0, SVG Export Plug-In . SVG Version: 2.1.1 Build 123)  -->
  <defs>
    <style>
      .st0 {
        fill: currentColor;
      }
    </style>
  </defs>
  <g id="Layer_1" shape-rendering="crispEdges">
    <g>
      <rect class="st0" x="4" y="2" width="1" height="1"/>
      <path class="st0" d="M7,4h1v-2h-2v1h1v1Z"/>
      <path class="st0" d="M13,3h-1v2h1v-1h1v-1h-1Z"/>
      <path class="st0" d="M3,5h4v-1h-1v-1h-1v1h-1v-1h-2v1h1v1Z"/>
      <path class="st0" d="M9,5h2v-3h-1v1h-1v1h-1v1h1Z"/>
      <path class="st0" d="M10,6H3v7h1v1h7v-1h1v-7h-2ZM9,7v5h-1v-5h1ZM7,7v5h-1v-5h1ZM4,11v-4h1v5h-1v-1ZM11,8v4h-1v-5h1v1Z"/>
    </g>
  </g>
</svg>