<?xml version="1.0" encoding="UTF-8"?>
<svg xmlns="http://www.w3.org/2000/svg" version="1.1" viewBox="0 0 16 16">
  <!-- Generator: Adobe Illustrator 30.0.0, SVG Export Plug-In . SVG Version: 2.1.1 Build 123)  -->
  <defs>
    <style>
      .st0 {
        fill: currentColor;
      }
    </style>
  </defs>
  <g id="Layer_1" shape-rendering="crispEdges">
    <g>
      <path class="st0" d="M9,4v-1h-2v1h2Z"/>
      <path class="st0" d="M5,5v-2h-2v3h1v-1h1Z"/>
      <rect class="st0" x="6" y="4" width="1" height="1"/>
      <rect class="st0" x="9" y="4" width="1" height="1"/>
      <rect class="st0" x="5" y="5" width="1" height="1"/>
      <rect class="st0" x="10" y="5" width="1" height="1"/>
      <rect class="st0" x="4" y="6" width="1" height="1"/>
      <rect class="st0" x="11" y="6" width="1" height="1"/>
      <rect class="st0" x="3" y="7" width="1" height="1"/>
      <rect class="st0" x="12" y="7" width="1" height="1"/>
      <rect class="st0" x="2" y="8" width="1" height="1"/>
      <path class="st0" d="M12,8h-1v-1h-1v-1h-1v-1h-2v1h-1v1h-1v1h-1v1h-1v5h4v-4h2v4h4v-5h-1v-1ZM6,12v1h-2v-2h2v1ZM12,12v1h-2v-2h2v1Z"/>
      <rect class="st0" x="13" y="8" width="1" height="1"/>
      <rect class="st0" x="1" y="9" width="1" height="1"/>
      <rect class="st0" x="14" y="9" width="1" height="1"/>
    </g>
  </g>
</svg>