<?xml version="1.0" encoding="UTF-8"?>
<svg xmlns="http://www.w3.org/2000/svg" version="1.1" viewBox="0 0 16 16">
  <!-- Generator: Adobe Illustrator 30.0.0, SVG Export Plug-In . SVG Version: 2.1.1 Build 123)  -->
  <defs>
    <style>
      .st0 {
        fill: currentColor;
      }
    </style>
  </defs>
  <g id="Layer_1" shape-rendering="crispEdges">
    <g>
      <path class="st0" d="M5,4v1h1v-2h3v-1h-5v1h1v1Z"/>
      <path class="st0" d="M12,4V1h-2v3h2Z"/>
      <path class="st0" d="M4,4v-1h-1v2h1v-1Z"/>
      <path class="st0" d="M14,5h-1v2h1v-2Z"/>
      <path class="st0" d="M3,6v-1h-1v2h1v-1Z"/>
      <path class="st0" d="M6,7h1v-2h-1v2Z"/>
      <path class="st0" d="M2,7h-1v2h1v-2Z"/>
      <path class="st0" d="M14,7v1h-6v-1h-1v2h8v-2h-1Z"/>
      <path class="st0" d="M6,8v-1h-1v-2h-1v2h-1v2h-1v3h2v-3h1v3h2v-3h-1v-1Z"/>
      <rect class="st0" x="8" y="10" width="1" height="1"/>
      <rect class="st0" x="11" y="10" width="1" height="1"/>
      <path class="st0" d="M14,11v-1h-1v2h1v-1Z"/>
      <path class="st0" d="M13,13H1v1h14v-1h-2Z"/>
    </g>
  </g>
</svg>