<?xml version="1.0" encoding="UTF-8"?>
<svg xmlns="http://www.w3.org/2000/svg" version="1.1" viewBox="0 0 16 16">
  <!-- Generator: Adobe Illustrator 30.0.0, SVG Export Plug-In . SVG Version: 2.1.1 Build 123)  -->
  <defs>
    <style>
      .st0 {
        fill: currentColor;
      }
    </style>
  </defs>
  <g id="Layer_1" shape-rendering="crispEdges">
    <g>
      <path class="st0" d="M11,2h-7v1h8v-1h-1Z"/>
      <path class="st0" d="M7,6v-1h-1v-1h-1v3h1v-1h1Z"/>
      <rect class="st0" x="7" y="6" width="1" height="1"/>
      <rect class="st0" x="6" y="7" width="1" height="1"/>
      <path class="st0" d="M8,9h1v-1h1v-1h1v-3h-1v1h-2v1h1v1h-1v1h-1v1h1Z"/>
      <rect class="st0" x="6" y="9" width="1" height="1"/>
      <rect class="st0" x="9" y="9" width="1" height="1"/>
      <path class="st0" d="M5,11v2h1v-3h-1v1Z"/>
      <path class="st0" d="M10,12v1h1v-3h-1v2Z"/>
      <path class="st0" d="M10,14h-6v1h8v-1h-2Z"/>
    </g>
  </g>
</svg>