<?xml version="1.0" encoding="UTF-8"?>
<svg xmlns="http://www.w3.org/2000/svg" version="1.1" viewBox="0 0 16 16">
  <!-- Generator: Adobe Illustrator 30.0.0, SVG Export Plug-In . SVG Version: 2.1.1 Build 123)  -->
  <defs>
    <style>
      .st0 {
        fill: currentColor;
      }
    </style>
  </defs>
  <g id="Layer_1" shape-rendering="crispEdges">
    <g>
      <polygon class="st0" points="13 7 12 7 12 6 12 5 11 5 11 4 10 4 10 3 9 3 8 3 7 3 6 3 5 3 5 4 4 4 4 5 5 5 6 5 7 5 8 5 9 5 9 6 10 6 10 7 9 7 9 8 10 8 10 9 11 9 11 10 12 10 12 9 13 9 13 8 14 8 14 7 13 7"/>
      <polygon class="st0" points="10 11 9 11 8 11 7 11 7 10 6 10 6 9 7 9 7 8 6 8 6 7 5 7 5 6 4 6 4 7 3 7 3 8 2 8 2 9 3 9 4 9 4 10 4 11 5 11 5 12 6 12 6 13 7 13 8 13 9 13 10 13 11 13 11 12 12 12 12 11 11 11 10 11"/>
    </g>
  </g>
</svg>