<?xml version="1.0" encoding="UTF-8"?>
<svg xmlns="http://www.w3.org/2000/svg" version="1.1" viewBox="0 0 16 16">
  <!-- Generator: Adobe Illustrator 30.0.0, SVG Export Plug-In . SVG Version: 2.1.1 Build 123)  -->
  <defs>
    <style>
      .st0 {
        fill: currentColor;
      }
    </style>
  </defs>
  <g id="Layer_1" shape-rendering="crispEdges">
    <g>
      <path class="st0" d="M4,2h-1v1h2v-1h-1Z"/>
      <path class="st0" d="M10,3v-1h-2v1h2Z"/>
      <rect class="st0" x="10" y="3" width="1" height="1"/>
      <rect class="st0" x="3" y="4" width="1" height="1"/>
      <path class="st0" d="M8,4v-1h-3v1h2v1h2v-1h-1Z"/>
      <path class="st0" d="M12,6v-2h-1v1h-2v1h2v1h2v-1h-1Z"/>
      <rect class="st0" x="13" y="7" width="1" height="1"/>
      <path class="st0" d="M11,9v3h-1v-5h-1v5h-1v-6H3v7h1v1h7v-1h1v-5h-1v1ZM7,7v5h-1v-5h1ZM4,11v-4h1v5h-1v-1Z"/>
    </g>
  </g>
</svg>