<?xml version="1.0" encoding="UTF-8"?>
<svg xmlns="http://www.w3.org/2000/svg" version="1.1" viewBox="0 0 16 16">
  <!-- Generator: Adobe Illustrator 30.0.0, SVG Export Plug-In . SVG Version: 2.1.1 Build 123)  -->
  <defs>
    <style>
      .st0 {
        fill: currentColor;
      }
    </style>
  </defs>
  <g id="Layer_1" shape-rendering="crispEdges">
    <g>
      <path class="st0" d="M9,2v-1h-2v1h2Z"/>
      <rect class="st0" x="6" y="2" width="1" height="1"/>
      <rect class="st0" x="9" y="2" width="1" height="1"/>
      <path class="st0" d="M6,4v-1h-1v2h1v-1Z"/>
      <path class="st0" d="M10,5h1v-2h-1v2Z"/>
      <path class="st0" d="M5,6v-1h-1v2h1v-1Z"/>
      <path class="st0" d="M11,7h1v-2h-1v2Z"/>
      <path class="st0" d="M4,8v-1h-1v2h1v-1Z"/>
      <path class="st0" d="M12,9h1v-2h-1v2Z"/>
      <path class="st0" d="M3,10v-1h-1v2h1v-1Z"/>
      <path class="st0" d="M12,10v-1h-1v-2h-1v-2h-1v-2h-2v2h-1v2h-1v2h-1v2h-1v1h10v-1h-1v-1ZM7,6h2v3h-1v-1h-1v-2ZM8,11v-1h1v1h-1Z"/>
      <path class="st0" d="M13,11h1v-2h-1v2Z"/>
      <path class="st0" d="M2,11h-1v2h1v-2Z"/>
      <path class="st0" d="M14,11v2h1v-2h-1Z"/>
      <path class="st0" d="M12,13H2v1h12v-1h-2Z"/>
    </g>
  </g>
</svg>