<?xml version="1.0" encoding="UTF-8"?>
<svg xmlns="http://www.w3.org/2000/svg" version="1.1" viewBox="0 0 16 16">
  <!-- Generator: Adobe Illustrator 30.0.0, SVG Export Plug-In . SVG Version: 2.1.1 Build 123)  -->
  <defs>
    <style>
      .st0 {
        fill: currentColor;
      }
    </style>
  </defs>
  <g id="Layer_1" shape-rendering="crispEdges">
    <g>
      <path class="st0" d="M9,3v-1h-2v1h2Z"/>
      <path class="st0" d="M7,4v-1h-1v2h1v-1Z"/>
      <path class="st0" d="M9,5h1v-2h-1v2Z"/>
      <path class="st0" d="M6,6v-1h-1v2h1v-1Z"/>
      <path class="st0" d="M7,6v3h1v1h1v-4h-2Z"/>
      <path class="st0" d="M10,7h1v-2h-1v2Z"/>
      <path class="st0" d="M5,8v-1h-1v2h1v-1Z"/>
      <path class="st0" d="M11,9h1v-2h-1v2Z"/>
      <path class="st0" d="M4,10v-1h-1v2h1v-1Z"/>
      <path class="st0" d="M12,11h1v-2h-1v2Z"/>
      <path class="st0" d="M3,11h-1v2h1v-2Z"/>
      <rect class="st0" x="8" y="11" width="1" height="1"/>
      <path class="st0" d="M13,11v2h1v-2h-1Z"/>
      <path class="st0" d="M11,13H3v1h10v-1h-2Z"/>
    </g>
  </g>
</svg>